<svg id="visual" viewBox="0 0 900 600" width="900" height="600" xmlns="http://www.w3.org/2000/svg" xmlns:xlink="http://www.w3.org/1999/xlink" version="1.1"><rect x="0" y="0" width="900" height="600" fill="#afd2f5"></rect><defs><linearGradient id="grad1_0" x1="33.3%" y1="0%" x2="100%" y2="100%"><stop offset="20%" stop-color="#86bbf1" stop-opacity="1"></stop><stop offset="80%" stop-color="#86bbf1" stop-opacity="1"></stop></linearGradient></defs><defs><linearGradient id="grad1_1" x1="33.3%" y1="0%" x2="100%" y2="100%"><stop offset="20%" stop-color="#86bbf1" stop-opacity="1"></stop><stop offset="80%" stop-color="#afd2f5" stop-opacity="1"></stop></linearGradient></defs><defs><linearGradient id="grad2_0" x1="0%" y1="0%" x2="66.7%" y2="100%"><stop offset="20%" stop-color="#86bbf1" stop-opacity="1"></stop><stop offset="80%" stop-color="#86bbf1" stop-opacity="1"></stop></linearGradient></defs><defs><linearGradient id="grad2_1" x1="0%" y1="0%" x2="66.7%" y2="100%"><stop offset="20%" stop-color="#afd2f5" stop-opacity="1"></stop><stop offset="80%" stop-color="#86bbf1" stop-opacity="1"></stop></linearGradient></defs><g transform="translate(900, 0)"><path d="M0 486.7C-23.8 485.2 -47.7 483.7 -68 473.1C-88.4 462.5 -105.2 442.9 -129.6 441.4C-154 439.9 -186 456.6 -202.2 442.8C-218.4 429 -218.8 384.7 -238.4 371C-258 357.3 -296.8 374.2 -317 365.8C-337.1 357.3 -338.5 323.5 -345.4 299.3C-352.2 275.1 -364.5 260.5 -383.6 246.5C-402.7 232.6 -428.7 219.3 -434.8 198.6C-440.9 177.8 -427.2 149.5 -433.7 127.3C-440.2 105.2 -466.9 89.1 -479.1 68.9C-491.3 48.7 -489 24.3 -486.7 0L0 0Z" fill="#9bc7f3"></path><path d="M0 243.4C-11.9 242.6 -23.8 241.9 -34 236.6C-44.2 231.3 -52.6 221.4 -64.8 220.7C-77 219.9 -93 228.3 -101.1 221.4C-109.2 214.5 -109.4 192.3 -119.2 185.5C-129 178.7 -148.4 187.1 -158.5 182.9C-168.5 178.7 -169.3 161.7 -172.7 149.6C-176.1 137.5 -182.2 130.2 -191.8 123.3C-201.4 116.3 -214.3 109.7 -217.4 99.3C-220.5 88.9 -213.6 74.8 -216.8 63.7C-220.1 52.6 -233.4 44.5 -239.5 34.4C-245.6 24.3 -244.5 12.2 -243.4 0L0 0Z" fill="#86bbf1"></path></g><g transform="translate(0, 600)"><path d="M0 -486.7C21.2 -466.3 42.3 -445.8 62.6 -435.5C82.9 -425.2 102.4 -425 125.9 -428.9C149.5 -432.8 177.2 -440.7 198.6 -434.8C219.9 -428.9 234.9 -409.2 255.7 -397.9C276.6 -386.6 303.3 -383.8 318.8 -367.9C334.2 -351.9 338.2 -322.9 346.9 -300.6C355.5 -278.3 368.7 -262.8 385.3 -247.6C401.8 -232.4 421.7 -217.4 434.8 -198.6C447.9 -179.7 454.2 -157 457.7 -134.4C461.2 -111.8 461.8 -89.4 466.2 -67C470.6 -44.7 478.7 -22.3 486.7 0L0 0Z" fill="#9bc7f3"></path><path d="M0 -243.4C10.6 -233.1 21.2 -222.9 31.3 -217.8C41.5 -212.6 51.2 -212.5 63 -214.4C74.8 -216.4 88.6 -220.3 99.3 -217.4C110 -214.5 117.4 -204.6 127.9 -199C138.3 -193.3 151.7 -191.9 159.4 -183.9C167.1 -176 169.1 -161.4 173.4 -150.3C177.8 -139.2 184.4 -131.4 192.6 -123.8C200.9 -116.2 210.9 -108.7 217.4 -99.3C223.9 -89.9 227.1 -78.5 228.8 -67.2C230.6 -55.9 230.9 -44.7 233.1 -33.5C235.3 -22.3 239.3 -11.2 243.4 0L0 0Z" fill="#86bbf1"></path></g></svg>